<?xml version="1.0" encoding="utf-8"?>
<!-- Generator: Adobe Illustrator 24.0.3, SVG Export Plug-In . SVG Version: 6.00 Build 0)  -->
<svg version="1.1" id="Capa_1" xmlns="http://www.w3.org/2000/svg" xmlns:xlink="http://www.w3.org/1999/xlink" x="0px" y="0px"
	 viewBox="0 0 256 256" style="enable-background:new 0 0 256 256;" xml:space="preserve">
<style type="text/css">
	.st0{fill:none;}
	.st1{fill:none;stroke:#000000;stroke-width:16;stroke-linecap:round;stroke-linejoin:round;}
</style>
<rect class="st0" width="256" height="256"/>
<path class="st1" d="M218.9,38.5c-0.3-0.1-0.7-0.1-1-0.1H38.2c-3.4,0-6.2,2.8-6.2,6.3c0,0.4,0,0.8,0.1,1.1l26.1,164.6
	c0.3,2,1.3,3.8,2.8,5.2c1.5,1.3,3.4,2.1,5.4,2.1h125.3c3.1,0,5.7-2.3,6.1-5.4l15.6-99.2h-57.7l-7.4,44.8h-40.6L97.4,98.7h118.3
	l8.3-52.8C224.5,42.3,222.2,39,218.9,38.5L218.9,38.5z"/>
</svg>
