<?xml version="1.0" encoding="utf-8"?>
<!-- Generator: Adobe Illustrator 24.0.3, SVG Export Plug-In . SVG Version: 6.00 Build 0)  -->
<svg version="1.1" id="Capa_1" xmlns="http://www.w3.org/2000/svg" xmlns:xlink="http://www.w3.org/1999/xlink" x="0px" y="0px"
	 viewBox="0 0 256 256" style="enable-background:new 0 0 256 256;" xml:space="preserve">
<style type="text/css">
	.st0{fill:none;}
</style>
<rect class="st0" width="256" height="256"/>
<path d="M226.4,35c-0.4-0.1-0.7-0.1-1.1-0.1H30.7c-3.7-0.1-6.7,3-6.8,6.8c0,0.4,0,0.8,0.1,1.2l28.3,178.2c0.4,2.2,1.4,4.1,3,5.6
	c1.6,1.5,3.7,2.3,5.8,2.3H197c3.4,0,6.2-2.5,6.6-5.8l16.9-107.5H158l-8,48.5h-44l-11.2-64.1h128.1l9-57.2
	C232.5,39.2,230,35.6,226.4,35L226.4,35z"/>
</svg>
