<svg xmlns="http://www.w3.org/2000/svg" viewBox="0 0 256 256"><path fill="none" d="M0 0h256v256H0z"/><path fill="currentColor" d="M124 100a24 24 0 1 1 24-24 24 24 0 0 1-24 24ZM144 160a24 24 0 1 1 24-24 24 24 0 0 1-24 24Z"/><path fill="none" stroke="currentColor" stroke-linecap="round" stroke-linejoin="round" stroke-width="24" d="M120 216H72a8 8 0 0 1-8-8v-36.19l-27.58-12.63a8 8 0 0 1-3.77-10.3L56 104a80 80 0 1 1 128 64l8 64"/><path fill="none" stroke="currentColor" stroke-linecap="round" stroke-linejoin="round" stroke-width="24" d="M214.38 88H184l-40 48M124 76V24.89"/></svg>