<svg xmlns="http://www.w3.org/2000/svg" xml:space="preserve"
	style="fill-rule:evenodd;clip-rule:evenodd;stroke-linejoin:round;stroke-miterlimit:2" viewBox="0 0 194 174">
	<path
		d="M25.024 14.588c0-.499-5.163-10.416-10.417-10.416h168.638a10.416 10.416 0 0 1 10.329 11.763l-7.341 56.288a10.486 10.486 0 0 1-.558 2.267c.591 1.6.787 3.34.542 5.068l-12.057 85.249a10.417 10.417 0 0 1-10.314 8.958H55.175c-17.339 0-31.99-12.854-34.247-30.049L4.167 15.943a10.394 10.394 0 0 0 3.472 6.488c3.136 2.744 8.045 1.219 8.045 1.219l15.572 118.711c1.577 12.009 11.809 20.987 23.919 20.987h108.671l12.057-85.249h-56.762l-4.72 28.962H83.435l-4.72-36.185h97.188l7.342-56.288H25.024Zm83.043 66.704H90.579l2.002 15.352h12.984l2.502-15.352Z"
		style="fill-opacity:.35" />
	<path
		d="M0 11.772s.024-.854.024-1.355C.024 4.664 4.688 0 10.441 0h168.637a10.416 10.416 0 0 1 10.329 11.764l-7.341 56.287a10.414 10.414 0 0 1-.558 2.267c.591 1.601.787 3.341.543 5.069l-12.058 85.248a10.417 10.417 0 0 1-10.314 8.958H51.008c-17.339 0-31.99-12.854-34.246-30.049L0 11.772Zm103.9 65.349H86.412l2.002 15.351h12.984l2.502-15.351Zm67.837-10.417 7.341-56.287H10.441l.016.112-.129-.112L27.09 138.189c1.576 12.01 11.808 20.988 23.918 20.988h108.671l12.058-85.249h-56.762l-4.72 28.961H79.268l-4.72-36.185h97.189Z"
		style="fill:#f2f2f2" />
	<path
		d="m171.737 66.704 7.341-56.287H10.441l.016.112-.129-.112L27.09 138.189c1.576 12.01 11.808 20.988 23.918 20.988h108.671l12.058-85.249h-56.762l-4.72 28.961H79.268l-4.72-36.185h97.189Z"
		style="fill:#70bfff;fill-rule:nonzero" />
	<path
		d="M171.737 66.704H74.548l4.72 36.185h30.987l4.72-28.961h56.762l-12.058 85.249H51.008c-12.11 0-22.342-8.978-23.918-20.988L10.328 10.417l.129.112-.016-.112h168.637l-7.341 56.287ZM17.452 16.667l15.835 120.709c1.167 8.898 8.748 15.551 17.721 15.551h103.243l10.289-72.749h-44.251l-3.866 23.716a6.25 6.25 0 0 1-6.168 5.245H79.268a6.25 6.25 0 0 1-6.197-5.442l-4.72-36.184a6.25 6.25 0 0 1 6.197-7.059h91.701l5.711-43.787H17.452Z"
		style="fill:#40396e" />
</svg>