<svg xmlns="http://www.w3.org/2000/svg" viewBox="0 0 100 100">
	<path
		d="M66.786 97.027a6.427 6.427 0 0 1-2.687-.582 6.52 6.52 0 0 1-3.404-3.648l-.562-1.505c-2.66.55-5.374.827-8.112.827-22.113 0-40.104-17.99-40.104-40.104 0-2.88.307-5.73.913-8.52l-.357-4.79c-1.59-.623-4.083 2.295-4.766.719a6.462 6.462 0 0 1-.081-4.973A47.78 47.78 0 0 1 35.957 7.046a6.478 6.478 0 0 1 2.187-.38c2.68 0 4.268 5.775 5.223 8.279l1.499-2.393a40.102 40.102 0 0 1 7.156-.642c22.113 0 40.104 17.991 40.104 40.104 0 3.336-.407 6.619-1.214 9.81l1.061.357a6.512 6.512 0 0 1 3.861 3.512 6.513 6.513 0 0 1 .032 5.224C90.794 82.661 81.044 92.02 69.114 96.596a6.466 6.466 0 0 1-2.328.431z"
		opacity=".35" />
	<path class="back" fill="#f2f2f2"
		d="M64.786 95.027a6.427 6.427 0 0 1-2.687-.582 6.52 6.52 0 0 1-3.404-3.648l-.562-1.505c-2.66.55-5.374.827-8.112.827-22.113 0-40.104-17.99-40.104-40.104 0-2.88.307-5.73.913-8.52l-1.542-.608a6.534 6.534 0 0 1-3.581-3.463 6.462 6.462 0 0 1-.081-4.973A47.78 47.78 0 0 1 33.957 5.046a6.478 6.478 0 0 1 2.187-.38 6.537 6.537 0 0 1 6.075 4.187l.646 1.699a40.102 40.102 0 0 1 7.156-.642c22.113 0 40.104 17.991 40.104 40.104 0 3.336-.407 6.619-1.214 9.81l1.061.357a6.512 6.512 0 0 1 3.861 3.512 6.513 6.513 0 0 1 .032 5.224C88.794 80.661 79.044 90.02 67.114 94.596a6.466 6.466 0 0 1-2.328.431z" />
	<path fill="#739f4d"
		d="m39.69 21.624-2.984-10.063c-10.95 3.791-19.78 12.122-24.233 22.743l7.853 3.613L39.69 21.624zM78.975 63.408l-.279-.269L60.33 77.418l4.046 10.671A40.826 40.826 0 0 0 87.38 66.161l-8.405-2.753z" />
	<circle cx="50.021" cy="50.015" r="32.199" fill="#96c362" />
	<path fill="#40396e"
		d="M64.786 90.027a1.499 1.499 0 0 1-1.405-.976l-2.153-5.769a34.94 34.94 0 0 1-11.206 1.836c-19.356 0-35.104-15.747-35.104-35.104 0-3.944.653-7.812 1.943-11.518l-5.739-2.262a1.498 1.498 0 0 1-.845-1.948A42.778 42.778 0 0 1 35.64 9.753a1.501 1.501 0 0 1 1.907.879l2.21 5.81a35.003 35.003 0 0 1 10.265-1.532c19.356 0 35.104 15.748 35.104 35.104 0 4.483-.836 8.84-2.486 12.974l5.737 1.932a1.5 1.5 0 0 1 .899 2.017C84.734 77.45 76.004 85.83 65.323 89.928a1.506 1.506 0 0 1-.537.099zm-2.672-10.159a1.495 1.495 0 0 1 1.405.976l2.132 5.713c8.792-3.771 16.03-10.7 20.191-19.323l-5.697-1.918a1.5 1.5 0 0 1-.887-2.042 31.841 31.841 0 0 0 2.868-13.258c0-17.702-14.402-32.104-32.104-32.104-3.642 0-7.228.612-10.659 1.819a1.498 1.498 0 0 1-1.9-.882L35.275 13.1a39.775 39.775 0 0 0-21.63 20.907l5.684 2.239a1.498 1.498 0 0 1 .845 1.948 31.926 31.926 0 0 0-2.257 11.821c0 17.702 14.402 32.104 32.104 32.104 3.967 0 7.854-.724 11.553-2.15.174-.068.358-.101.54-.101z" />
	<circle cx="50.021" cy="50.015" r="27.028" fill="#f2f2f2" />
	<path fill="#40396e"
		d="M59.078 60.01c-.368 0-.736-.135-1.026-.406l-9.059-8.496a1.501 1.501 0 0 1-.474-1.094l.002-19.211a1.5 1.5 0 0 1 3 0l-.001 18.561 8.585 8.052a1.499 1.499 0 0 1-1.027 2.594z" />
	<circle cx="50.021" cy="50.015" r="3.916" fill="#40396e" transform="rotate(-80.781 50.022 50.015)" />
</svg>