<svg xmlns="http://www.w3.org/2000/svg" xml:space="preserve" width="84" height="82" style="fill-rule:evenodd;clip-rule:evenodd;stroke-linejoin:round;stroke-miterlimit:2"><path d="m153.563 118.218.067.04 28.542 23.505 2.071 2.132 1.537 2.503.956 2.778.329 2.954-.329 2.955-.956 2.778-1.537 2.503-2.071 2.132-28.542 23.507-3.261 1.984-3.615.976-3.744-.059-3.649-1.122-3.187-2.103-2.426-2.852-1.545-3.411-.542-3.779-.001-1.682-67.156-.001-2.698-.273-2.532-.786-2.285-1.24-1.982-1.635-1.635-1.982-1.24-2.285-.786-2.532-.273-2.698v-16.789l.273-2.698.786-2.532 1.24-2.285 1.635-1.982 1.982-1.635 2.285-1.24 2.532-.786 2.698-.273h27.458l-.359-6.065-2.406-.36-28.55-22.951-3.298-1.921-3.314-1.585-.956-2.778-.329-2.954.329-2.955.956-2.778 1.536-2.503 2.072-2.132 28.541-23.507 3.262-1.984 3.615-.976 3.744.059 3.649 1.122 3.186 2.103 2.427 2.852 1.544 3.411.543 3.779v1.682l67.157.001 2.698.273 2.532.786 2.285 1.24 1.982 1.635 1.635 1.982 1.24 2.285.786 2.532.273 2.698v16.789l-.273 2.698-.786 2.532-1.24 2.285-1.635 1.982-1.982 1.635-2.285 1.24-2.533.786-2.698.273h-27.457l5.71 4.702ZM62.979 87.802a5.039 5.039 0 0 0 .001 7.776l28.541 23.505a5.037 5.037 0 0 0 8.239-3.888v-10.073l75.55-.001a5.037 5.037 0 0 0 5.037-5.036V83.296a5.036 5.036 0 0 0-5.036-5.036l-75.55-.001-.001-10.076a5.036 5.036 0 0 0-8.239-3.887L62.979 87.802Zm113.856 68.217a5.037 5.037 0 0 0 0-7.776l-28.542-23.505a5.035 5.035 0 0 0-8.238 3.888v10.073l-75.551.001a5.036 5.036 0 0 0-5.036 5.036v16.789a5.036 5.036 0 0 0 5.036 5.036l75.55.001.001 10.076a5.036 5.036 0 0 0 8.239 3.887l28.541-23.506Z" style="fill-opacity:.35" transform="matrix(.59563 0 0 .59563 -28.42 -30.612)"/><path d="m57.643 81.323 28.541-23.507 3.262-1.984 3.615-.976 3.744.059 3.649 1.122 3.186 2.103 2.427 2.852 1.544 3.411.543 3.779v1.682l67.157.001 2.698.273 2.532.786 2.285 1.24 1.982 1.635 1.635 1.982 1.24 2.285.786 2.532.273 2.698v16.789l-.273 2.698-.786 2.532-1.24 2.285-1.635 1.982-1.982 1.635-2.285 1.24-2.533.786-2.698.273h-67.156v1.679l-.542 3.779-1.544 3.411-2.426 2.853-3.187 2.103-3.649 1.123-3.744.059-3.615-.976-3.262-1.984-28.542-23.505-2.071-2.132-1.537-2.503-.956-2.778-.329-2.954.329-2.955.956-2.778 1.536-2.503 2.072-2.132Zm5.336 6.479a5.039 5.039 0 0 0 .001 7.776l28.541 23.505a5.037 5.037 0 0 0 8.239-3.888v-10.073l75.55-.001a5.037 5.037 0 0 0 5.037-5.036V83.296a5.036 5.036 0 0 0-5.036-5.036l-75.55-.001-.001-10.076a5.036 5.036 0 0 0-8.239-3.887L62.979 87.802Z" style="fill:#f2f2f2" transform="matrix(.59563 0 0 .59563 -30.42 -32.612)"/><path d="m57.643 81.323 28.541-23.507 3.262-1.984 3.615-.976 3.744.059 3.649 1.122 3.186 2.103 2.427 2.852 1.544 3.411.543 3.779v1.682l67.157.001 2.698.273 2.532.786 2.285 1.24 1.982 1.635 1.635 1.982 1.24 2.285.786 2.532.273 2.698v16.789l-.273 2.698-.786 2.532-1.24 2.285-1.635 1.982-1.982 1.635-2.285 1.24-2.533.786-2.698.273h-67.156v1.679l-.542 3.779-1.544 3.411-2.426 2.853-3.187 2.103-3.649 1.123-3.744.059-3.615-.976-3.262-1.984-28.542-23.505-2.071-2.132-1.537-2.503-.956-2.778-.329-2.954.329-2.955.956-2.778 1.536-2.503 2.072-2.132Zm5.336 6.479a5.039 5.039 0 0 0 .001 7.776l28.541 23.505a5.037 5.037 0 0 0 8.239-3.888v-10.073l75.55-.001a5.037 5.037 0 0 0 5.037-5.036V83.296a5.036 5.036 0 0 0-5.036-5.036l-75.55-.001-.001-10.076a5.036 5.036 0 0 0-8.239-3.887L62.979 87.802Z" style="fill:#f2f2f2" transform="matrix(-.59563 0 0 -.59563 112.42 112.614)"/><path d="M140.663 143.683H154v9.199h-13.337z" style="fill:#f2f2f2" transform="matrix(1.74741 0 0 1.77756 -216.545 -224.828)"/><path d="m185.108 148.094-4.824 2.183 5.241 5.743 9.053-.129-9.47-7.797Z" style="fill:#f2f2f2" transform="rotate(-180 105.949 97.55)"/><path d="m185.108 148.094-4.824 2.183 5.241 5.743 9.053-.129-9.47-7.797Z" style="fill:#f2f2f2" transform="translate(-131.318 -116.267)"/><path d="m62.979 87.802 28.542-23.506a5.036 5.036 0 0 1 8.239 3.887l.001 10.076 75.55.001a5.036 5.036 0 0 1 5.036 5.036v16.789a5.037 5.037 0 0 1-5.037 5.036l-75.55.001v10.073a5.038 5.038 0 0 1-8.239 3.888L62.98 95.578a5.037 5.037 0 0 1-.001-7.776Zm3.202 3.888 28.542 23.505v-15.11h80.587V83.296l-80.585-.001-.002-15.111L66.181 91.69Z" style="fill:#40396e" transform="matrix(.59563 0 0 .59563 -30.42 -32.612)"/><path d="m118 132 17-14.001.001 9.001H183v10h-48v9l-17-14Z" style="fill:#96c362" transform="translate(-109.001 -109.999)"/><path d="m62.979 87.802 28.542-23.506a5.036 5.036 0 0 1 8.239 3.887l.001 10.076 75.55.001a5.036 5.036 0 0 1 5.036 5.036v16.789a5.037 5.037 0 0 1-5.037 5.036l-75.55.001v10.073a5.038 5.038 0 0 1-8.239 3.888L62.98 95.578a5.037 5.037 0 0 1-.001-7.776Zm3.202 3.888 28.542 23.505v-15.11h80.587V83.296l-80.585-.001-.002-15.111L66.181 91.69Z" style="fill:#40396e" transform="matrix(-.59563 0 0 -.59563 112.42 112.614)"/><path d="m182.001 168-17 14.001L165 173h-47.999v-10h48v-9l17 14Z" style="fill:#9aa2e6" transform="translate(-109.001 -109.999)"/></svg>