<svg xmlns="http://www.w3.org/2000/svg" xml:space="preserve" style="fill-rule:evenodd;clip-rule:evenodd;stroke-linejoin:round;stroke-miterlimit:2" viewBox="0 0 194 190"><path d="M118.673 187.367c-1.875-1.194-4.644-3.28-6.587-6.156l-2.107-4.26-.825-5.538v-.004c.132-5.179-.004-17.265-.004-21.7 0-3.634-2.232-6.234-2.232-6.234a10.418 10.418 0 0 1 7.886-17.355s13.635.249 21.79-9.811c3.624-4.47 5.941-10.967 5.941-20.171 0-10.795-5.166-16.566-5.166-16.566a10.419 10.419 0 0 1-2.74-9.977s1.07-4.175 1.203-8.836c-3.993 1.837-7.859 4.215-10.138 5.697a10.417 10.417 0 0 1-9.627.905s-6.442-2.463-17.112-2.463c-10.672 0-17.111 2.462-17.111 2.462a10.417 10.417 0 0 1-9.627-.903c-2.278-1.48-6.145-3.859-10.14-5.697.133 4.66 1.203 8.835 1.203 8.835a10.416 10.416 0 0 1-2.738 9.976s-5.167 5.773-5.167 16.567c0 9.204 2.317 15.701 5.94 20.171 8.155 10.06 21.791 9.811 21.791 9.811a10.416 10.416 0 0 1 7.915 17.321s-1.763 2.132-2.167 5.211a10.4 10.4 0 0 1-2.012 4.917 10.416 10.416 0 0 1 1.875 6.011c-.02 4.429-.026 9.102.043 11.833l-.826 5.538-2.107 4.26c-1.943 2.876-4.712 4.962-6.587 6.156a10.417 10.417 0 0 1-9.674 1.72C31.61 176.713 4.167 141.052 4.167 98.964c0-52.353 42.439-94.792 94.791-94.792 52.353 0 94.792 42.439 94.792 94.792 0 42.088-27.443 77.749-65.403 90.123a10.417 10.417 0 0 1-9.674-1.72Zm-55.608-12.043c-.009.021 4.863 2.105 4.863 2.105a84.265 84.265 0 0 0 4.867 1.755l-.025-.078s5.696-2.668 5.576-7.432c-.07-2.802-.067-7.597-.045-12.143-3.33.447-7.756.981-9.925.981-19.969 0-19.867-14.439-25.471-20.858-2.658-3.045-6.687-4.191-6.687-5.833 0-1.641 1.403-3.079 4.275-3.079 4.363 0 9.043 3.09 11.324 6.774 2.314 3.734 8.631 11.806 16.935 11.806 3.175 0 7.102-1.118 9.774-2.025.84-6.406 4.696-10.761 4.696-10.761s-38.264.428-38.264-40.398c0-15.75 8.234-23.949 8.234-23.949s-4.324-16.815 1.498-23.948c6.525-.703 18.214 6.24 23.203 9.481 0 0 7.906-3.241 21.062-3.241 13.152 0 21.062 3.241 21.062 3.241 4.992-3.245 16.678-10.184 23.203-9.481 5.822 7.129 1.498 23.948 1.498 23.948s8.233 8.195 8.233 23.949c0 40.826-38.264 40.398-38.264 40.398s4.88 5.463 4.88 13.173c0 4.489.134 16.723 0 21.965-.12 4.764 5.576 7.432 5.576 7.432l-.025.078c33.789-11.015 58.215-42.757 58.215-80.22 0-46.6-37.775-84.375-84.375-84.375-46.599 0-84.375 37.775-84.375 84.375 0 33.759 19.836 62.874 48.482 76.36Z" style="fill-opacity:.35"/><path d="M114.506 183.195c-1.875-1.195-4.643-3.28-6.586-6.157l-2.108-4.259-.825-5.538v-.005c.132-5.178-.003-17.265-.003-21.7 0-3.634-2.232-6.234-2.232-6.234a10.415 10.415 0 0 1 7.885-17.355s13.636.249 21.791-9.811c3.623-4.47 5.94-10.966 5.94-20.171 0-10.794-5.165-16.565-5.165-16.565a10.42 10.42 0 0 1-2.741-9.977s1.071-4.175 1.204-8.836c-3.994 1.837-7.859 4.215-10.139 5.697a10.415 10.415 0 0 1-9.626.905s-6.443-2.464-17.113-2.464c-10.672 0-17.111 2.463-17.111 2.463a10.415 10.415 0 0 1-9.626-.903c-2.279-1.481-6.146-3.86-10.14-5.698.132 4.661 1.203 8.835 1.203 8.835a10.419 10.419 0 0 1-2.739 9.976s-5.167 5.774-5.167 16.567c0 9.205 2.317 15.701 5.941 20.171 8.155 10.06 21.79 9.811 21.79 9.811a10.418 10.418 0 0 1 7.916 17.321s-1.764 2.132-2.168 5.211a10.417 10.417 0 0 1-2.011 4.918 10.417 10.417 0 0 1 1.874 6.01c-.02 4.43-.026 9.103.043 11.834l-.825 5.538-2.108 4.259c-1.943 2.877-4.712 4.962-6.586 6.157a10.418 10.418 0 0 1-9.674 1.72C27.443 172.54 0 136.879 0 94.792 0 42.439 42.439 0 94.792 0c52.352 0 94.791 42.439 94.791 94.792 0 42.087-27.443 77.749-65.403 90.123a10.42 10.42 0 0 1-9.674-1.72Zm-55.608-12.043 4.864 2.105a84.224 84.224 0 0 0 4.866 1.754l-.024-.077s5.695-2.669 5.576-7.432c-.071-2.802-.067-7.597-.046-12.143-3.329.446-7.756.981-9.925.981-19.969 0-19.867-14.439-25.47-20.858-2.658-3.045-6.687-4.191-6.687-5.833 0-1.642 1.403-3.08 4.275-3.08 4.363 0 9.042 3.091 11.324 6.775 2.313 3.734 8.631 11.805 16.934 11.805 3.175 0 7.102-1.117 9.774-2.025.84-6.405 4.697-10.761 4.697-10.761s-38.264.429-38.264-40.398c0-15.75 8.233-23.948 8.233-23.948s-4.324-16.816 1.498-23.949c6.525-.703 18.214 6.24 23.203 9.482 0 0 7.907-3.242 21.062-3.242 13.152 0 21.062 3.242 21.062 3.242 4.992-3.245 16.678-10.185 23.203-9.482 5.822 7.13 1.498 23.949 1.498 23.949s8.234 8.195 8.234 23.948c0 40.827-38.264 40.398-38.264 40.398s4.879 5.463 4.879 13.173c0 4.49.134 16.724 0 21.966-.119 4.763 5.576 7.432 5.576 7.432l-.025.077c33.789-11.014 58.216-42.757 58.216-80.219 0-46.6-37.776-84.375-84.375-84.375-46.6 0-84.375 37.775-84.375 84.375 0 33.759 19.836 62.873 48.481 76.36Z" style="fill:#f2f2f2"/><path d="M94.792 10.417c46.599 0 84.375 37.775 84.375 84.375 0 37.462-24.427 69.205-58.216 80.219l.025-.077s-5.695-2.668-5.576-7.432c.134-5.242 0-17.476 0-21.966 0-7.709-4.879-13.173-4.879-13.173s38.264.429 38.264-40.398c0-15.753-8.234-23.948-8.234-23.948s4.324-16.819-1.498-23.949c-6.525-.703-18.211 6.237-23.203 9.482 0 0-7.91-3.241-21.062-3.241-13.155 0-21.062 3.241-21.062 3.241-4.989-3.241-16.678-10.185-23.203-9.482-5.822 7.134-1.498 23.949-1.498 23.949s-8.233 8.198-8.233 23.948c0 40.827 38.264 40.398 38.264 40.398s-3.857 4.356-4.697 10.762c-2.672.907-6.599 2.025-9.774 2.025-8.303 0-14.621-8.072-16.934-11.806-2.282-3.684-6.961-6.774-11.324-6.774-2.872 0-4.275 1.437-4.275 3.079 0 1.642 4.029 2.788 6.687 5.833 5.603 6.419 5.501 20.858 25.47 20.858 2.169 0 6.596-.535 9.925-.981-.021 4.546-.025 9.341.046 12.143.119 4.764-5.576 7.432-5.576 7.432l.024.077c-33.785-11.014-58.211-42.757-58.211-80.219 0-46.6 37.775-84.375 84.375-84.375Z" style="fill:#6065a3;fill-rule:nonzero"/><path d="M65.679 173.989c-30.686-12.625-55.262-43.957-55.262-79.197 0-46.6 37.775-84.375 84.375-84.375 46.599 0 84.375 37.775 84.375 84.375 0 37.462-24.427 69.205-58.216 80.219l.025-.077s-5.695-2.668-5.576-7.432c.134-5.242 0-17.476 0-21.966 0-7.709-4.879-13.173-4.879-13.173s38.264.429 38.264-40.398c0-15.753-8.234-23.948-8.234-23.948s4.324-16.819-1.498-23.949c-6.525-.703-18.211 6.237-23.203 9.482 0 0-7.91-3.241-21.062-3.241-13.155 0-21.062 3.241-21.062 3.241-4.989-3.241-16.678-10.185-23.203-9.482-5.822 7.134-1.498 23.949-1.498 23.949s-8.233 8.198-8.233 23.948c0 40.827 38.264 40.398 38.264 40.398s-3.857 4.356-4.697 10.762c-2.672.907-6.599 2.025-9.774 2.025-8.303 0-14.621-8.072-16.934-11.806-2.282-3.684-6.961-6.774-11.324-6.774-2.872 0-4.275 1.437-4.275 3.079 0 1.642 4.029 2.788 6.687 5.833 5.603 6.419 5.501 20.858 25.47 20.858 2.169 0 6.596-.535 9.925-.981-.021 4.546-.025 9.341.046 12.143.119 4.764-5.576 7.432-5.576 7.432s-.073.014-.062.046a79.2 79.2 0 0 1-2.863-.991s2.256-6.204 2.253-6.33a252.461 252.461 0 0 1-.058-5.286c-1.451.132-2.745.217-3.665.217-4.139 0-7.598-.499-10.519-1.366a79.033 79.033 0 0 0 14.096 6.909l-2.107 5.856Zm-25.708-23.553a44.274 44.274 0 0 1-1.053-1.791c-1.835-3.284-2.896-6.771-4.888-9.053-1.087-1.245-2.546-1.979-3.569-2.662-1.1-.734-1.985-1.461-2.599-2.138l-1.565-2.503-.495-2.64.217-1.969.668-1.92 1.096-1.732 1.438-1.425 1.658-1.063 1.774-.707c1.047-.314 2.269-.513 3.674-.513 2.482 0 5.048.659 7.454 1.783-5.327-6.806-9.239-16.422-9.239-30.138 0-12.895 4.776-21.487 7.751-25.584-.492-2.663-1.07-6.676-1.062-10.813.011-5.747 1.305-11.598 4.45-15.452a6.25 6.25 0 0 1 4.172-2.262c2.699-.291 6.061.228 9.6 1.413 5.249 1.756 11.065 4.959 15.107 7.426 3.789-1.095 10.792-2.634 20.228-2.634 9.434 0 16.439 1.539 20.225 2.634 4.046-2.468 9.862-5.671 15.111-7.427 3.539-1.184 6.9-1.702 9.599-1.412a6.25 6.25 0 0 1 4.171 2.261c3.146 3.852 4.441 9.703 4.452 15.451.007 4.137-.57 8.15-1.063 10.811 2.975 4.1 7.752 12.69 7.752 25.588 0 14.075-4.12 23.832-9.66 30.667-7.422 9.155-17.638 13.067-25.103 14.737.805 2.385 1.378 5.144 1.378 8.167 0 4.522.133 16.845-.002 22.123-.004.184.106.308.245.409 29.785-11.021 51.024-39.662 51.024-73.276 0-43.148-34.978-78.125-78.125-78.125-43.148 0-78.125 34.977-78.125 78.125 0 21.784 8.92 41.48 23.304 55.644Zm13.577-19.487c.988 1.446 2.485 3.323 4.385 4.947 1.825 1.561 4.045 3.004 6.652 3.004 1.397 0 2.971-.297 4.46-.684.086-.286.176-.568.269-.845-4.636-1.037-10.334-2.937-15.766-6.422Z" style="fill:#40396e"/></svg>