<svg xmlns="http://www.w3.org/2000/svg" xml:space="preserve" style="fill-rule:evenodd;clip-rule:evenodd;stroke-linejoin:round;stroke-miterlimit:2" viewBox="0 0 194 178"><path d="M92.905 175.828 8.53 115.56a10.416 10.416 0 0 1-3.699-12.134l11.986-31.963 20.028-60.084a10.416 10.416 0 0 1 19.764 0l17.715 53.145h49.27l17.715-53.145a10.417 10.417 0 0 1 19.764 0l20.029 60.084 11.986 31.963a10.419 10.419 0 0 1-3.699 12.134l-84.375 60.268a10.417 10.417 0 0 1-12.109 0Zm6.054-8.477 84.375-60.268-12.053-32.143-20.09-60.267-20.089 60.267H66.816L46.727 14.673 26.638 74.94l-12.054 32.143 84.375 60.268Z" style="fill-opacity:.35"/><path d="M88.738 171.572 4.363 111.304A10.416 10.416 0 0 1 .664 99.17L12.65 67.207 32.678 7.123a10.417 10.417 0 0 1 19.764 0l17.716 53.145h49.269l17.716-53.145a10.415 10.415 0 0 1 19.764 0l20.028 60.085 11.986 31.962a10.416 10.416 0 0 1-3.699 12.134l-84.375 60.268a10.417 10.417 0 0 1-12.109 0Zm6.055-8.477 84.375-60.268-12.054-32.142-20.089-60.268-20.09 60.268H62.65L42.56 10.417 22.471 70.685l-12.053 32.142 84.375 60.268Z" style="fill:#f2f2f2"/><path d="M94.793 163.095 62.65 70.685h64.285l-32.142 92.41Z" style="fill:#de5147;fill-rule:nonzero"/><path d="m94.793 163.095 72.321-92.41h-40.179l-32.142 92.41Z" style="fill:#ff7575;fill-rule:nonzero"/><path d="m147.025 10.417 20.089 60.268h-40.179l20.09-60.268Z" style="fill:#de5147;fill-rule:nonzero"/><path d="m94.793 163.095 72.321-92.41 12.054 32.142-84.375 60.268Z" style="fill:#f9b84e;fill-rule:nonzero"/><path d="m94.793 163.095-72.322-92.41H62.65l32.143 92.41Z" style="fill:#ff7575;fill-rule:nonzero"/><path d="M42.56 10.417 22.471 70.685H62.65L42.56 10.417Z" style="fill:#de5147;fill-rule:nonzero"/><path d="m94.793 163.095-72.322-92.41-12.053 32.142 84.375 60.268Z" style="fill:#f9b84e;fill-rule:nonzero"/><path d="m94.793 163.095-84.375-60.268 12.053-32.142L42.56 10.417l20.09 60.268h64.285l20.09-60.268 20.089 60.268 12.054 32.142-84.375 60.268Zm0-7.68 76.838-54.885-10.369-27.651a5.636 5.636 0 0 1-.077-.218l-14.16-42.48-14.16 42.48a6.251 6.251 0 0 1-5.93 4.274H62.65a6.251 6.251 0 0 1-5.93-4.274l-14.16-42.48-14.16 42.48c-.024.073-.05.146-.077.218L17.954 100.53l76.839 54.885Z" style="fill:#40396e"/></svg>