<svg xmlns="http://www.w3.org/2000/svg" xml:space="preserve" width="99" height="98" style="fill-rule:evenodd;clip-rule:evenodd;stroke-linejoin:round;stroke-miterlimit:2"><path d="m188 154.749-.006 3.231-.133 1.346s-.353 1.176-.365 1.234c-.021.057-.896 2.376-3.237 4.917 1.392 1.544 2.63 3.281 3.295 5.029l.343 1.226.115 1.268v2.266l.946.776.876 1.068.644 1.207.398 1.309.136 1.374v4l-.142 1.409-.411 1.322-.647 1.193-.854 1.035-1.034.853-1.193.648-1.322.41-1.409.142h-28l-1.409-.142-1.322-.41-1.193-.648-1.035-.853-.853-1.035-.495-.912h-28.26c-8.524 0-15.445-6.921-15.445-15.445V167l.142-1.408.411-1.322.647-1.193.853-1.035 1.035-.854 1.193-.647 1.322-.41 1.409-.143h2.988V115l.142-1.409.411-1.322.647-1.193.854-1.034 1.034-.854 1.193-.647 1.322-.411 1.409-.142h50l1.409.142 1.322.411 1.193.647 1.034.854.854 1.034.647 1.193.411 1.322.142 1.409v22.988H184l1.409.142 1.322.41 1.193.648 1.034.853.854 1.035.647 1.193.411 1.322.142 1.409v4l-.142 1.409-.411 1.322-.647 1.193-.854 1.034-.958.791Z" style="fill-opacity:.35" transform="translate(-118.916 -121.197) scale(1.14085)"/><path d="m188 154.749-.006 3.231-.133 1.346s-.353 1.176-.365 1.234c-.021.057-.896 2.376-3.237 4.917 1.392 1.544 2.63 3.281 3.295 5.029l.343 1.226.115 1.268v2.266l.946.776.876 1.068.644 1.207.398 1.309.136 1.374v4l-.142 1.409-.411 1.322-.647 1.193-.854 1.035-1.034.853-1.193.648-1.322.41-1.409.142h-28l-1.409-.142-1.322-.41-1.193-.648-1.035-.853-.853-1.035-.495-.912h-28.26c-8.524 0-15.445-6.921-15.445-15.445V167l.142-1.408.411-1.322.647-1.193.853-1.035 1.035-.854 1.193-.647 1.322-.41 1.409-.143h2.988V115l.142-1.409.411-1.322.647-1.193.854-1.034 1.034-.854 1.193-.647 1.322-.411 1.409-.142h50l1.409.142 1.322.411 1.193.647 1.034.854.854 1.034.647 1.193.411 1.322.142 1.409v22.988H184l1.409.142 1.322.41 1.193.648 1.034.853.854 1.035.647 1.193.411 1.322.142 1.409v4l-.142 1.409-.411 1.322-.647 1.193-.854 1.034-.958.791Z" style="fill:#f2f2f2" transform="translate(-120.916 -123.197) scale(1.14085)"/><path d="M177.613 165.272c2.011 1.565 4.827 4.118 5.845 6.793.113.299.172.615.172.935v5.37h.37c.697 0 1.366.277 1.859.771.494.493.771 1.162.771 1.859v4a2.63 2.63 0 0 1-2.63 2.63h-28a2.63 2.63 0 0 1-2.63-2.63v-1.37h-31.937c-6.106 0-11.063-4.957-11.063-11.063V167a2.63 2.63 0 0 1 2.63-2.629h7.37V115a2.63 2.63 0 0 1 2.63-2.63h50a2.63 2.63 0 0 1 2.63 2.63v27.37H184a2.63 2.63 0 0 1 2.63 2.63v4a2.63 2.63 0 0 1-2.63 2.63h-.377l-.012 6.342c-.001.34-.067.676-.196.99 0 0-1.468 3.752-5.802 6.31ZM123 167h-10v5.567c0 4.654 3.779 8.433 8.433 8.433H156v4h28v-4h-3v-8c-1.408-3.699-6.938-7.043-6.938-7.043l.024-1.919c5.184-1.886 6.895-6.071 6.895-6.071l.017-8.967H184v-4h-11v-30h-50v52Z" style="fill:#40396e" transform="translate(-120.916 -123.197) scale(1.14085)"/><path d="M130.78 121.209h32.491v26.833H130.78z" style="fill:#70bfff" transform="matrix(1.7556 0 0 2.21085 -210.19 -259.976)"/><circle cx="132.7" cy="126.7" r="1.398" style="fill:#d9eeff" transform="matrix(1.2245 0 0 1.22438 -132.245 -134.009)"/><path d="M164.967 126.674c0 .723-.637 1.311-1.423 1.311h-20.866c-.786 0-1.423-.588-1.423-1.311s.637-1.31 1.423-1.31h20.866c.786 0 1.423.587 1.423 1.31Z" style="fill:#d9eeff" transform="matrix(1.20276 0 0 1.30632 -131.092 -144.357)"/><circle cx="132.7" cy="126.7" r="1.398" style="fill:#d9eeff" transform="matrix(1.2245 0 0 1.22438 -132.245 -122.626)"/><path d="M164.967 126.674c0 .723-.637 1.311-1.423 1.311h-20.866c-.786 0-1.423-.588-1.423-1.311s.637-1.31 1.423-1.31h20.866c.786 0 1.423.587 1.423 1.31Z" style="fill:#d9eeff" transform="matrix(1.20276 0 0 1.30632 -131.092 -132.974)"/><circle cx="132.7" cy="126.7" r="1.398" style="fill:#d9eeff" transform="matrix(1.2245 0 0 1.22438 -132.245 -111.167)"/><path d="M164.967 126.674c0 .723-.637 1.311-1.423 1.311h-20.866c-.786 0-1.423-.588-1.423-1.311s.637-1.31 1.423-1.31h20.866c.786 0 1.423.587 1.423 1.31Z" style="fill:#d9eeff" transform="matrix(1.20276 0 0 1.30632 -131.092 -121.515)"/><path d="M158.843 169.994h-38.362v3.738c0 3.126 2.416 5.664 5.392 5.664h32.97v-9.402Z" style="fill:#5f90cc" transform="matrix(1.78437 0 0 1.69871 -206.982 -221.446)"/><path d="M156.234 145.439h17.077v3.023h-17.077z" style="fill:#d47f56" transform="matrix(1.93731 0 0 1.50984 -246.757 -177.364)"/><path d="M159 148h22l-.019 9.967s-1.711 4.185-6.895 6.071l-.024 1.919s5.53 3.344 6.938 7.043v8h-22v-8s2.715-5.544 7.033-7.106l-.032-1.879s-4.189.478-7.001-5.144V148Z" style="fill:#d9eeff" transform="translate(-120.916 -123.197) scale(1.14085)"/><path d="m170 165-9-6v-4h18v4l-9 6Z" style="fill:#f9b84f" transform="translate(-120.916 -123.197) scale(1.14085)"/><path d="M156.234 145.439h17.077v3.023h-17.077z" style="fill:#d47f56" transform="matrix(1.87053 0 0 1.50984 -235.183 -136.293)"/></svg>