<svg xmlns="http://www.w3.org/2000/svg" xml:space="preserve"
	style="fill-rule:evenodd;clip-rule:evenodd;stroke-linejoin:round;stroke-miterlimit:2" viewBox="0 0 91 96">
	<path
		d="M115.287 123.328c7.024-8.745 17.292-14.776 28.97-16.26l3.428-3.047 1.932-1.271 2.169-.657 2.267-.024 2.224.633 1.951 1.242 1.488 1.71.95 2.058.048.33c19.268 4.835 33.553 22.283 33.553 43.04 0 24.489-19.882 44.371-44.371 44.371-24.488 0-44.37-19.882-44.37-44.371a44.177 44.177 0 0 1 9.756-27.749l.005-.005Z"
		style="fill-opacity:.35" transform="translate(-103.526 -100.069)" />
	<path
		d="M115.287 123.328c7.024-8.745 17.292-14.776 28.97-16.26l3.428-3.047 1.932-1.271 2.169-.657 2.267-.024 2.224.633 1.951 1.242 1.488 1.71.95 2.058.048.33c19.268 4.835 33.553 22.283 33.553 43.04 0 24.489-19.882 44.371-44.371 44.371-24.488 0-44.37-19.882-44.37-44.371a44.177 44.177 0 0 1 9.756-27.749l.005-.005Z"
		style="fill:#f2f2f2" transform="translate(-105.526 -102.069)" />
	<path
		d="M164.09 125.005c13.653 2.13 24.115 13.951 24.115 28.197 0 15.751-12.788 28.539-28.539 28.539-15.751 0-28.539-12.788-28.539-28.539a28.41 28.41 0 0 1 6.274-17.846 2.173 2.173 0 0 1 2.59-.621s1.886.803 4.018 3.234c.695.792.722 1.969.064 2.792a19.862 19.862 0 0 0-4.359 12.441c0 11.012 8.94 19.952 19.952 19.952 11.012 0 19.952-8.94 19.952-19.952 0-9.491-6.642-17.445-15.528-19.459v1.277a2.174 2.174 0 0 1-3.619 1.626l-6.524-5.799a2.178 2.178 0 0 1 0-3.251l6.524-5.799a2.175 2.175 0 0 1 3.619 1.625v1.583Z"
		style="fill:#40396e" transform="translate(-175.893 -162.333) scale(1.37953)" />
	<path
		d="M161.916 126.933c13.499 1.143 24.114 12.476 24.114 26.269 0 14.551-11.813 26.365-26.364 26.365s-26.364-11.814-26.364-26.365a26.241 26.241 0 0 1 5.795-16.485s1.525.688 3.277 2.686a22.026 22.026 0 0 0-4.834 13.799c0 12.212 9.914 22.127 22.126 22.127 12.212 0 22.126-9.915 22.126-22.127 0-11.452-8.719-20.884-19.876-22.013v3.831l-6.524-5.799 6.524-5.799v3.511Z"
		style="fill:#96c362" transform="translate(-175.893 -162.333) scale(1.37953)" />
	<path
		d="m147.689 149.248-10.691-13.944a1.163 1.163 0 0 1 1.845-1.415l10.819 14.113a3.473 3.473 0 0 1 4.23 3.388 3.474 3.474 0 0 1-4.605 3.283l-8.465 8.718a1.163 1.163 0 0 1-1.668-1.62l8.311-8.559a3.457 3.457 0 0 1-.517-1.822c0-.808.277-1.551.741-2.142Z"
		style="fill:#40396e" transform="translate(-128.327 -125.056) scale(1.14902)" />
</svg>