<svg xmlns="http://www.w3.org/2000/svg" viewBox="0 0 100 100"><path d="M95.388 53.229c0-6.01-4.323-11.023-10.021-12.11a11.052 11.052 0 0 0 2.396-6.871c0-6.132-4.992-11.121-11.128-11.121-3.252 0-6.172 1.413-8.207 3.647.181-.964.287-1.954.287-2.97 0-8.85-7.201-16.051-16.052-16.051-7.428 0-13.676 5.08-15.498 11.942a14.937 14.937 0 0 0-6.493-1.493c-8.293 0-15.04 6.75-15.04 15.046 0 2.851.811 5.51 2.194 7.785-5.367 1.974-9.214 7.123-9.214 13.167 0 6.067 6.119 9.056 11.52 11.013-.797 1.76-3.493 5.885-3.493 7.94 0 7.742 6.295 14.04 14.033 14.04 3.044 0 5.857-.984 8.16-2.636 1.122 6.624 6.889 11.69 13.832 11.69 7.332 0 13.36-5.653 13.975-12.827a12.955 12.955 0 0 0 8 2.767c7.186 0 13.033-5.847 13.033-13.034 0-2.914-.973-5.598-2.596-7.771 5.84-.97 10.312-6.043 10.312-12.153z" opacity=".35"/><path fill="#f2f2f2" d="M93.388 51.229c0-6.01-4.323-11.023-10.021-12.11a11.052 11.052 0 0 0 2.396-6.871c0-6.132-4.992-11.121-11.128-11.121-3.252 0-6.172 1.413-8.207 3.647.181-.964.287-1.954.287-2.97 0-8.85-7.201-16.051-16.052-16.051-7.428 0-13.676 5.08-15.498 11.942a14.937 14.937 0 0 0-6.493-1.493c-8.293 0-15.04 6.75-15.04 15.046 0 2.851.811 5.51 2.194 7.785-5.367 1.974-9.214 7.123-9.214 13.167 0 6.067 3.877 11.233 9.278 13.19a13.943 13.943 0 0 0-1.251 5.763c0 7.742 6.295 14.04 14.033 14.04 3.044 0 5.857-.984 8.16-2.636 1.122 6.624 6.889 11.69 13.832 11.69 7.332 0 13.36-5.653 13.975-12.827a12.955 12.955 0 0 0 8 2.767c7.186 0 13.033-5.847 13.033-13.034 0-2.914-.973-5.598-2.596-7.771 5.84-.97 10.312-6.043 10.312-12.153z" class="back"/><path fill="#407845" stroke="#40396E" stroke-miterlimit="10" stroke-width="3" d="M50.663 12.253a9.552 9.552 0 1 0 0 19.104 9.552 9.552 0 0 0 0-19.104z"/><path fill="#96C362" stroke="#40396E" stroke-miterlimit="10" stroke-width="3" d="M20.65 44.66a7.539 7.539 0 1 0 0 15.079 7.539 7.539 0 0 0 0-15.078zM28.672 63.615c4.17 0 7.544 3.377 7.544 7.539s-3.375 7.539-7.544 7.539c-4.156 0-7.534-3.378-7.534-7.54s3.38-7.538 7.534-7.538z"/><path fill="#9BA7C5" stroke="#40396E" stroke-miterlimit="10" stroke-width="3" d="M50.664 72.669c4.159 0 7.536 3.378 7.536 7.544a7.538 7.538 0 0 1-7.536 7.534 7.537 7.537 0 0 1-7.544-7.534 7.54 7.54 0 0 1 7.544-7.544z"/><circle cx="81.054" cy="51.228" r="5.834" fill="#9BA7C5" stroke="#40396E" stroke-miterlimit="10" stroke-width="3"/><path fill="#9BA7C5" stroke="#40396E" stroke-miterlimit="10" stroke-width="3" d="M74.635 27.627a4.624 4.624 0 0 1 4.628 4.621 4.636 4.636 0 0 1-4.628 4.621c-2.551 0-4.615-2.082-4.615-4.621a4.614 4.614 0 0 1 4.615-4.621z"/><circle cx="72.639" cy="71.154" r="6.532" fill="#9BA7C5" stroke="#40396E" stroke-miterlimit="10" stroke-width="3"/><path fill="#739F4D" stroke="#40396E" stroke-miterlimit="10" stroke-width="3" d="M28.672 22.702a8.543 8.543 0 0 1 8.55 8.546c0 4.717-3.825 8.545-8.55 8.545-4.712 0-8.54-3.828-8.54-8.545 0-4.722 3.83-8.546 8.54-8.546z"/></svg>